<svg xmlns="http://www.w3.org/2000/svg" viewBox="0 0 700 340" width="100%" style="max-width:700px;height:auto" font-family="system-ui,-apple-system,'Segoe UI',Helvetica,Arial,sans-serif"><defs><marker id="arw-c3c2b7" viewBox="0 0 10 10" refX="9" refY="5" markerWidth="7" markerHeight="7" orient="auto-start-reverse"><path d="M 0 1 L 10 5 L 0 9 z" fill="#c3c2b7"/></marker><marker id="arw-eb6834" viewBox="0 0 10 10" refX="9" refY="5" markerWidth="7" markerHeight="7" orient="auto-start-reverse"><path d="M 0 1 L 10 5 L 0 9 z" fill="#eb6834"/></marker><marker id="arw-4a3aa7" viewBox="0 0 10 10" refX="9" refY="5" markerWidth="7" markerHeight="7" orient="auto-start-reverse"><path d="M 0 1 L 10 5 L 0 9 z" fill="#4a3aa7"/></marker></defs><rect x="40.00" y="46.00" width="286.00" height="240.00" rx="8" fill="#ffffff" stroke="#e1e0d9" stroke-width="1" opacity="1"/><path d="M 56.00 59.27 L 56.83 61.71 L 57.67 64.13 L 58.50 66.53 L 59.33 68.92 L 60.17 71.29 L 61.00 73.64 L 61.83 75.98 L 62.67 78.30 L 63.50 80.61 L 64.33 82.89 L 65.17 85.17 L 66.00 87.42 L 66.83 89.66 L 67.67 91.89 L 68.50 94.09 L 69.33 96.29 L 70.17 98.46 L 71.00 100.62 L 71.83 102.76 L 72.67 104.89 L 73.50 107.00 L 74.33 109.09 L 75.17 111.17 L 76.00 113.23 L 76.83 115.27 L 77.67 117.30 L 78.50 119.31 L 79.33 121.31 L 80.17 123.29 L 81.00 125.25 L 81.83 127.20 L 82.67 129.13 L 83.50 131.04 L 84.33 132.94 L 85.17 134.82 L 86.00 136.69 L 86.83 138.54 L 87.67 140.37 L 88.50 142.19 L 89.33 143.99 L 90.17 145.77 L 91.00 147.54 L 91.83 149.29 L 92.67 151.02 L 93.50 152.74 L 94.33 154.44 L 95.17 156.13 L 96.00 157.80 L 96.83 159.45 L 97.67 161.09 L 98.50 162.71 L 99.33 164.32 L 100.17 165.90 L 101.00 167.48 L 101.83 169.03 L 102.67 170.57 L 103.50 172.10 L 104.33 173.60 L 105.17 175.09 L 106.00 176.57 L 106.83 178.03 L 107.67 179.47 L 108.50 180.89 L 109.33 182.30 L 110.17 183.69 L 111.00 185.07 L 111.83 186.43 L 112.67 187.78 L 113.50 189.10 L 114.33 190.41 L 115.17 191.71 L 116.00 192.99 L 116.83 194.25 L 117.67 195.50 L 118.50 196.73 L 119.33 197.94 L 120.17 199.14 L 121.00 200.32 L 121.83 201.48 L 122.67 202.63 L 123.50 203.76 L 124.33 204.88 L 125.17 205.98 L 126.00 207.06 L 126.83 208.13 L 127.67 209.18 L 128.50 210.22 L 129.33 211.23 L 130.17 212.24 L 131.00 213.22 L 131.83 214.19 L 132.67 215.14 L 133.50 216.08 L 134.33 217.00 L 135.17 217.91 L 136.00 218.79 L 136.83 219.66 L 137.67 220.52 L 138.50 221.36 L 139.33 222.18 L 140.17 222.99 L 141.00 223.78 L 141.83 224.55 L 142.67 225.31 L 143.50 226.05 L 144.33 226.78 L 145.17 227.48 L 146.00 228.18 L 146.83 228.85 L 147.67 229.51 L 148.50 230.16 L 149.33 230.78 L 150.17 231.39 L 151.00 231.99 L 151.83 232.57 L 152.67 233.13 L 153.50 233.68 L 154.33 234.20 L 155.17 234.72 L 156.00 235.21 L 156.83 235.70 L 157.67 236.16 L 158.50 236.61 L 159.33 237.04 L 160.17 237.45 L 161.00 237.85 L 161.83 238.24 L 162.67 238.60 L 163.50 238.95 L 164.33 239.29 L 165.17 239.60 L 166.00 239.91 L 166.83 240.19 L 167.67 240.46 L 168.50 240.71 L 169.33 240.95 L 170.17 241.17 L 171.00 241.37 L 171.83 241.56 L 172.67 241.73 L 173.50 241.89 L 174.33 242.02 L 175.17 242.15 L 176.00 242.25 L 176.83 242.34 L 177.67 242.42 L 178.50 242.47 L 179.33 242.51 L 180.17 242.54 L 181.00 242.55 L 181.83 242.54 L 182.67 242.51 L 183.50 242.47 L 184.33 242.42 L 185.17 242.34 L 186.00 242.25 L 186.83 242.15 L 187.67 242.02 L 188.50 241.89 L 189.33 241.73 L 190.17 241.56 L 191.00 241.37 L 191.83 241.17 L 192.67 240.95 L 193.50 240.71 L 194.33 240.46 L 195.17 240.19 L 196.00 239.91 L 196.83 239.60 L 197.67 239.29 L 198.50 238.95 L 199.33 238.60 L 200.17 238.24 L 201.00 237.85 L 201.83 237.45 L 202.67 237.04 L 203.50 236.61 L 204.33 236.16 L 205.17 235.70 L 206.00 235.21 L 206.83 234.72 L 207.67 234.20 L 208.50 233.68 L 209.33 233.13 L 210.17 232.57 L 211.00 231.99 L 211.83 231.39 L 212.67 230.78 L 213.50 230.16 L 214.33 229.51 L 215.17 228.85 L 216.00 228.18 L 216.83 227.48 L 217.67 226.78 L 218.50 226.05 L 219.33 225.31 L 220.17 224.55 L 221.00 223.78 L 221.83 222.99 L 222.67 222.18 L 223.50 221.36 L 224.33 220.52 L 225.17 219.66 L 226.00 218.79 L 226.83 217.91 L 227.67 217.00 L 228.50 216.08 L 229.33 215.14 L 230.17 214.19 L 231.00 213.22 L 231.83 212.24 L 232.67 211.23 L 233.50 210.22 L 234.33 209.18 L 235.17 208.13 L 236.00 207.06 L 236.83 205.98 L 237.67 204.88 L 238.50 203.76 L 239.33 202.63 L 240.17 201.48 L 241.00 200.32 L 241.83 199.14 L 242.67 197.94 L 243.50 196.73 L 244.33 195.50 L 245.17 194.25 L 246.00 192.99 L 246.83 191.71 L 247.67 190.41 L 248.50 189.10 L 249.33 187.78 L 250.17 186.43 L 251.00 185.07 L 251.83 183.69 L 252.67 182.30 L 253.50 180.89 L 254.33 179.47 L 255.17 178.03 L 256.00 176.57 L 256.83 175.09 L 257.67 173.60 L 258.50 172.10 L 259.33 170.57 L 260.17 169.03 L 261.00 167.48 L 261.83 165.90 L 262.67 164.32 L 263.50 162.71 L 264.33 161.09 L 265.17 159.45 L 266.00 157.80 L 266.83 156.13 L 267.67 154.44 L 268.50 152.74 L 269.33 151.02 L 270.17 149.29 L 271.00 147.54 L 271.83 145.77 L 272.67 143.99 L 273.50 142.19 L 274.33 140.37 L 275.17 138.54 L 276.00 136.69 L 276.83 134.82 L 277.67 132.94 L 278.50 131.04 L 279.33 129.13 L 280.17 127.20 L 281.00 125.25 L 281.83 123.29 L 282.67 121.31 L 283.50 119.31 L 284.33 117.30 L 285.17 115.27 L 286.00 113.23 L 286.83 111.17 L 287.67 109.09 L 288.50 107.00 L 289.33 104.89 L 290.17 102.76 L 291.00 100.62 L 291.83 98.46 L 292.67 96.29 L 293.50 94.09 L 294.33 91.89 L 295.17 89.66 L 296.00 87.42 L 296.83 85.17 L 297.67 82.89 L 298.50 80.61 L 299.33 78.30 L 300.17 75.98 L 301.00 73.64 L 301.83 71.29 L 302.67 68.92 L 303.50 66.53 L 304.33 64.13 L 305.17 61.71 L 306.00 59.27" fill="none" stroke="#2a78d6" stroke-width="2.6" stroke-linecap="round" stroke-linejoin="round" opacity="1"/><path d="M 56.00 255.27 L 312.00 255.27" fill="none" stroke="#c3c2b7" stroke-width="1.3" stroke-linecap="round" opacity="1" marker-end="url(#arw-c3c2b7)"/><path d="M 181.00 268.00 L 181.00 52.00" fill="none" stroke="#c3c2b7" stroke-width="1.3" stroke-linecap="round" opacity="1" marker-end="url(#arw-c3c2b7)"/><text x="320.00" y="259.27" font-size="13" fill="#898781" text-anchor="middle" font-family="Georgia,'Times New Roman',serif" font-weight="normal" font-style="italic" opacity="1">w</text><text x="171.00" y="56.00" font-size="14" fill="#898781" text-anchor="end" font-family="Georgia,'Times New Roman',serif" font-weight="normal" font-style="italic" opacity="1">ξ</text><circle cx="74.23" cy="108.83" r="5.50" fill="#eb6834" stroke="#fcfcfb" stroke-width="1.6" opacity="1"/><path d="M 74.23 108.83 L 142.56 225.22" fill="none" stroke="#eb6834" stroke-width="1.8" stroke-linecap="round" opacity="0.85" marker-end="url(#arw-eb6834)"/><circle cx="142.56" cy="225.22" r="5.50" fill="#eb6834" stroke="#fcfcfb" stroke-width="1.6" opacity="1"/><path d="M 142.56 225.22 L 167.16 240.30" fill="none" stroke="#eb6834" stroke-width="1.8" stroke-linecap="round" opacity="0.85" marker-end="url(#arw-eb6834)"/><circle cx="167.16" cy="240.30" r="5.50" fill="#eb6834" stroke="#fcfcfb" stroke-width="1.6" opacity="1"/><path d="M 167.16 240.30 L 176.02 242.25" fill="none" stroke="#eb6834" stroke-width="1.8" stroke-linecap="round" opacity="0.85" marker-end="url(#arw-eb6834)"/><circle cx="176.02" cy="242.25" r="5.50" fill="#eb6834" stroke="#fcfcfb" stroke-width="1.6" opacity="1"/><path d="M 176.02 242.25 L 179.21 242.51" fill="none" stroke="#eb6834" stroke-width="1.8" stroke-linecap="round" opacity="0.85" marker-end="url(#arw-eb6834)"/><circle cx="179.21" cy="242.51" r="5.50" fill="#eb6834" stroke="#fcfcfb" stroke-width="1.6" opacity="1"/><path d="M 179.21 242.51 L 180.35 242.54" fill="none" stroke="#eb6834" stroke-width="1.8" stroke-linecap="round" opacity="0.85" marker-end="url(#arw-eb6834)"/><circle cx="181.00" cy="242.55" r="6.00" fill="#1baf7a" stroke="#fcfcfb" stroke-width="2" opacity="1"/><text x="181.00" y="264.55" font-size="11" fill="#1baf7a" text-anchor="middle" font-family="system-ui,-apple-system,'Segoe UI',Helvetica,Arial,sans-serif" font-weight="600" opacity="1">mínimo</text><text x="183.00" y="34.00" font-size="13" fill="#0b0b0b" text-anchor="middle" font-family="system-ui,-apple-system,'Segoe UI',Helvetica,Arial,sans-serif" font-weight="600" opacity="1">descenso por gradiente</text><text x="183.00" y="306.00" font-size="12" fill="#eb6834" text-anchor="middle" font-family="system-ui,-apple-system,'Segoe UI',Helvetica,Arial,sans-serif" font-weight="normal" opacity="1">cada paso resta  µ · ∇ξ</text><rect x="394.00" y="46.00" width="276.00" height="240.00" rx="8" fill="#ffffff" stroke="#e1e0d9" stroke-width="1" opacity="1"/><path d="M 559.35 163.00 L 559.26 161.50 L 558.99 160.01 L 558.54 158.54 L 557.91 157.09 L 557.11 155.68 L 556.15 154.32 L 555.02 153.01 L 553.74 151.76 L 552.32 150.58 L 550.75 149.48 L 549.06 148.46 L 547.25 147.53 L 545.33 146.69 L 543.32 145.96 L 541.23 145.33 L 539.07 144.81 L 536.85 144.40 L 534.59 144.11 L 532.30 143.93 L 530.00 143.88 L 527.70 143.93 L 525.41 144.11 L 523.15 144.40 L 520.93 144.81 L 518.77 145.33 L 516.68 145.96 L 514.67 146.69 L 512.75 147.53 L 510.94 148.46 L 509.25 149.48 L 507.68 150.58 L 506.26 151.76 L 504.98 153.01 L 503.85 154.32 L 502.89 155.68 L 502.09 157.09 L 501.46 158.54 L 501.01 160.01 L 500.74 161.50 L 500.65 163.00 L 500.74 164.50 L 501.01 165.99 L 501.46 167.46 L 502.09 168.91 L 502.89 170.32 L 503.85 171.68 L 504.98 172.99 L 506.26 174.24 L 507.68 175.42 L 509.25 176.52 L 510.94 177.54 L 512.75 178.47 L 514.67 179.31 L 516.68 180.04 L 518.77 180.67 L 520.93 181.19 L 523.15 181.60 L 525.41 181.89 L 527.70 182.07 L 530.00 182.12 L 532.30 182.07 L 534.59 181.89 L 536.85 181.60 L 539.07 181.19 L 541.23 180.67 L 543.32 180.04 L 545.33 179.31 L 547.25 178.47 L 549.06 177.54 L 550.75 176.52 L 552.32 175.42 L 553.74 174.24 L 555.02 172.99 L 556.15 171.68 L 557.11 170.32 L 557.91 168.91 L 558.54 167.46 L 558.99 165.99 L 559.26 164.50 L 559.35 163.00" fill="none" stroke="#2a78d6" stroke-width="1.4" stroke-linecap="round" stroke-linejoin="round" opacity="0.45"/><path d="M 588.70 163.00 L 588.51 160.00 L 587.97 157.02 L 587.07 154.07 L 585.82 151.18 L 584.23 148.36 L 582.30 145.63 L 580.05 143.01 L 577.49 140.52 L 574.63 138.16 L 571.50 135.95 L 568.12 133.91 L 564.50 132.06 L 560.67 130.39 L 556.65 128.92 L 552.46 127.66 L 548.14 126.62 L 543.70 125.81 L 539.18 125.22 L 534.61 124.87 L 530.00 124.75 L 525.39 124.87 L 520.82 125.22 L 516.30 125.81 L 511.86 126.62 L 507.54 127.66 L 503.35 128.92 L 499.33 130.39 L 495.50 132.06 L 491.88 133.91 L 488.50 135.95 L 485.37 138.16 L 482.51 140.52 L 479.95 143.01 L 477.70 145.63 L 475.77 148.36 L 474.18 151.18 L 472.93 154.07 L 472.03 157.02 L 471.49 160.00 L 471.30 163.00 L 471.49 166.00 L 472.03 168.98 L 472.93 171.93 L 474.18 174.82 L 475.77 177.64 L 477.70 180.37 L 479.95 182.99 L 482.51 185.48 L 485.37 187.84 L 488.50 190.05 L 491.88 192.09 L 495.50 193.94 L 499.33 195.61 L 503.35 197.08 L 507.54 198.34 L 511.86 199.38 L 516.30 200.19 L 520.82 200.78 L 525.39 201.13 L 530.00 201.25 L 534.61 201.13 L 539.18 200.78 L 543.70 200.19 L 548.14 199.38 L 552.46 198.34 L 556.65 197.08 L 560.67 195.61 L 564.50 193.94 L 568.12 192.09 L 571.50 190.05 L 574.63 187.84 L 577.49 185.48 L 580.05 182.99 L 582.30 180.37 L 584.23 177.64 L 585.82 174.82 L 587.07 171.93 L 587.97 168.98 L 588.51 166.00 L 588.70 163.00" fill="none" stroke="#2a78d6" stroke-width="1.4" stroke-linecap="round" stroke-linejoin="round" opacity="0.45"/><path d="M 618.04 163.00 L 617.77 158.50 L 616.96 154.02 L 615.61 149.61 L 613.73 145.27 L 611.34 141.04 L 608.45 136.95 L 605.07 133.02 L 601.23 129.28 L 596.95 125.74 L 592.26 122.43 L 587.18 119.37 L 581.75 116.58 L 576.00 114.08 L 569.97 111.88 L 563.69 109.99 L 557.21 108.43 L 550.55 107.21 L 543.77 106.33 L 536.91 105.80 L 530.00 105.62 L 523.09 105.80 L 516.23 106.33 L 509.45 107.21 L 502.79 108.43 L 496.31 109.99 L 490.03 111.88 L 484.00 114.08 L 478.25 116.58 L 472.82 119.37 L 467.74 122.43 L 463.05 125.74 L 458.77 129.28 L 454.93 133.02 L 451.55 136.95 L 448.66 141.04 L 446.27 145.27 L 444.39 149.61 L 443.04 154.02 L 442.23 158.50 L 441.96 163.00 L 442.23 167.50 L 443.04 171.98 L 444.39 176.39 L 446.27 180.73 L 448.66 184.96 L 451.55 189.05 L 454.93 192.98 L 458.77 196.72 L 463.05 200.26 L 467.74 203.57 L 472.82 206.63 L 478.25 209.42 L 484.00 211.92 L 490.03 214.12 L 496.31 216.01 L 502.79 217.57 L 509.45 218.79 L 516.23 219.67 L 523.09 220.20 L 530.00 220.38 L 536.91 220.20 L 543.77 219.67 L 550.55 218.79 L 557.21 217.57 L 563.69 216.01 L 569.97 214.12 L 576.00 211.92 L 581.75 209.42 L 587.18 206.63 L 592.26 203.57 L 596.95 200.26 L 601.23 196.72 L 605.07 192.98 L 608.45 189.05 L 611.34 184.96 L 613.73 180.73 L 615.61 176.39 L 616.96 171.98 L 617.77 167.50 L 618.04 163.00" fill="none" stroke="#2a78d6" stroke-width="1.4" stroke-linecap="round" stroke-linejoin="round" opacity="0.45"/><path d="M 647.39 163.00 L 647.03 157.00 L 645.95 151.03 L 644.15 145.14 L 641.65 139.36 L 638.46 133.72 L 634.60 128.27 L 630.09 123.03 L 624.97 118.03 L 619.27 113.32 L 613.01 108.91 L 606.24 104.83 L 599.00 101.11 L 591.34 97.77 L 583.29 94.84 L 574.92 92.32 L 566.28 90.24 L 557.40 88.61 L 548.36 87.44 L 539.21 86.74 L 530.00 86.50 L 520.79 86.74 L 511.64 87.44 L 502.60 88.61 L 493.72 90.24 L 485.08 92.32 L 476.71 94.84 L 468.66 97.77 L 461.00 101.11 L 453.76 104.83 L 446.99 108.91 L 440.73 113.32 L 435.03 118.03 L 429.91 123.03 L 425.40 128.27 L 421.54 133.72 L 418.35 139.36 L 415.85 145.14 L 414.05 151.03 L 412.97 157.00 L 412.61 163.00 L 412.97 169.00 L 414.05 174.97 L 415.85 180.86 L 418.35 186.64 L 421.54 192.28 L 425.40 197.73 L 429.91 202.97 L 435.03 207.97 L 440.73 212.68 L 446.99 217.09 L 453.76 221.17 L 461.00 224.89 L 468.66 228.23 L 476.71 231.16 L 485.08 233.68 L 493.72 235.76 L 502.60 237.39 L 511.64 238.56 L 520.79 239.26 L 530.00 239.50 L 539.21 239.26 L 548.36 238.56 L 557.40 237.39 L 566.28 235.76 L 574.92 233.68 L 583.29 231.16 L 591.34 228.23 L 599.00 224.89 L 606.24 221.17 L 613.01 217.09 L 619.27 212.68 L 624.97 207.97 L 630.09 202.97 L 634.60 197.73 L 638.46 192.28 L 641.65 186.64 L 644.15 180.86 L 645.95 174.97 L 647.03 169.00 L 647.39 163.00" fill="none" stroke="#2a78d6" stroke-width="1.4" stroke-linecap="round" stroke-linejoin="round" opacity="0.45"/><path d="M 410.00 163.00 L 656.00 163.00" fill="none" stroke="#c3c2b7" stroke-width="1.3" stroke-linecap="round" opacity="1" marker-end="url(#arw-c3c2b7)"/><path d="M 530.00 268.00 L 530.00 52.00" fill="none" stroke="#c3c2b7" stroke-width="1.3" stroke-linecap="round" opacity="1" marker-end="url(#arw-c3c2b7)"/><text x="664.00" y="167.00" font-size="12.5" fill="#898781" text-anchor="middle" font-family="Georgia,'Times New Roman',serif" font-weight="normal" font-style="italic" opacity="1">w₁</text><text x="518.00" y="56.00" font-size="12.5" fill="#898781" text-anchor="end" font-family="Georgia,'Times New Roman',serif" font-weight="normal" font-style="italic" opacity="1">w₂</text><path d="M 433.48 88.00 L 450.77 117.07" fill="none" stroke="#eb6834" stroke-width="2" stroke-linecap="round" opacity="0.9" marker-end="url(#arw-eb6834)"/><path d="M 450.77 117.07 L 464.97 134.87" fill="none" stroke="#eb6834" stroke-width="2" stroke-linecap="round" opacity="0.9" marker-end="url(#arw-eb6834)"/><path d="M 464.97 134.87 L 476.63 145.77" fill="none" stroke="#eb6834" stroke-width="2" stroke-linecap="round" opacity="0.9" marker-end="url(#arw-eb6834)"/><path d="M 476.63 145.77 L 486.19 152.45" fill="none" stroke="#eb6834" stroke-width="2" stroke-linecap="round" opacity="0.9" marker-end="url(#arw-eb6834)"/><path d="M 486.19 152.45 L 494.04 156.54" fill="none" stroke="#eb6834" stroke-width="2" stroke-linecap="round" opacity="0.9" marker-end="url(#arw-eb6834)"/><path d="M 494.04 156.54 L 500.48 159.04" fill="none" stroke="#eb6834" stroke-width="2" stroke-linecap="round" opacity="0.9" marker-end="url(#arw-eb6834)"/><path d="M 500.48 159.04 L 505.77 160.58" fill="none" stroke="#eb6834" stroke-width="2" stroke-linecap="round" opacity="0.9" marker-end="url(#arw-eb6834)"/><circle cx="530.00" cy="163.00" r="6.00" fill="#1baf7a" stroke="#fcfcfb" stroke-width="2" opacity="1"/><path d="M 433.48 88.00 L 407.48 66.00" fill="none" stroke="#4a3aa7" stroke-width="2.2" stroke-linecap="round" opacity="1" marker-end="url(#arw-4a3aa7)"/><text x="429.48" y="56.00" font-size="13" fill="#4a3aa7" text-anchor="start" font-family="system-ui,-apple-system,'Segoe UI',Helvetica,Arial,sans-serif" font-weight="600" opacity="1">∇ξ</text><text x="532.00" y="34.00" font-size="13" fill="#0b0b0b" text-anchor="middle" font-family="system-ui,-apple-system,'Segoe UI',Helvetica,Arial,sans-serif" font-weight="600" opacity="1">curvas de nivel del error</text><text x="532.00" y="306.00" font-size="11.5" fill="#52514e" text-anchor="middle" font-family="system-ui,-apple-system,'Segoe UI',Helvetica,Arial,sans-serif" font-weight="normal" opacity="1">el gradiente apunta al ascenso; nos movemos al revés</text></svg>